<?xml version="1.0" encoding="utf-8"?>
<!-- Generator: Adobe Illustrator 16.0.0, SVG Export Plug-In . SVG Version: 6.00 Build 0)  -->
<!DOCTYPE svg PUBLIC "-//W3C//DTD SVG 1.0//EN" "http://www.w3.org/TR/2001/REC-SVG-20010904/DTD/svg10.dtd">
<svg version="1.0" id="Layer_1" xmlns="http://www.w3.org/2000/svg" xmlns:xlink="http://www.w3.org/1999/xlink" x="0px" y="0px"
	 width="100px" height="100px" viewBox="0 0 100 100" enable-background="new 0 0 100 100" xml:space="preserve">
<path d="M88.435,26.287c-3.891-8.341-13.803-11.947-22.146-8.055c-7.256,3.379-10.915,11.322-9.192,18.822l-10.098,4.59
	c-3.301-4.082-8.659-5.787-13.659-4.498L27.474,26.58c2.754-3.133,3.393-7.762,1.188-11.576C25.901,10.218,19.785,8.578,15,11.344
	c-4.779,2.761-6.42,8.874-3.659,13.652c2.142,3.718,6.312,5.509,10.31,4.837l5.85,10.534c-4.362,4.147-5.521,10.86-2.376,16.299
	c0.65,1.137,1.49,2.087,2.389,2.946L21.65,70.17c-3.994-0.667-8.161,1.116-10.31,4.837C8.58,79.782,10.221,85.899,15,88.659
	c4.781,2.761,10.898,1.123,13.659-3.662c2.207-3.812,1.568-8.443-1.188-11.575l5.847-10.527c3.268,0.85,6.858,0.476,10.016-1.348
	c4.98-2.878,7.357-8.477,6.423-13.835l10.104-4.59c4.593,6.335,13.16,8.75,20.514,5.319C88.718,44.547,92.324,34.632,88.435,26.287z
	 M20,23.336c-1.836,0-3.334-1.497-3.334-3.333s1.498-3.334,3.334-3.334s3.333,1.498,3.333,3.334S21.836,23.336,20,23.336z
	 M20,83.334c-1.836,0-3.334-1.494-3.334-3.333c0-1.84,1.498-3.334,3.334-3.334s3.333,1.494,3.333,3.334
	C23.333,81.84,21.836,83.334,20,83.334z M36.667,56.667c-3.679,0-6.667-2.991-6.667-6.664c0-3.679,2.988-6.667,6.667-6.667
	c3.678,0,6.666,2.988,6.666,6.667C43.333,53.676,40.345,56.667,36.667,56.667z M73.333,43.336c-5.514,0-10-4.485-10-9.999
	c0-5.516,4.486-10.001,10-10.001c5.515,0,10,4.485,10,10.001C83.333,38.851,78.848,43.336,73.333,43.336z"/>
</svg>
